PathFileType	4	(X/Y/Z)	./resultDataOpenSim/trcMotMarkerGrf/sub06/qtm-01-04.trc
DataRate	CameraRate	NumFrames	NumMarkers	Units	OrigDataRate	OrigDataStartFrame	OrigNumFrames
250.000000	250.000000	6	24	m	250.000000	322	515
Frame#	Time	L.Toe.Tip			R.Toe.Tip			L.Ankle.Lat			R.Ankle.Lat			L.Ankle.Med			R.Ankle.Med			L.Heel			R.Heel			L.Knee.Lat			R.Knee.Lat			L.Knee.Med			R.Knee.Med			L.Thigh.Upper			R.Thigh.Upper			L.ASIS			R.ASIS			V.Sacral			L.Acromium			R.Acromium			C7			L.Elbow			R.Elbow			L.Wrist.Lat			R.Wrist.Lat
		X1	Y1	Z1	X2	Y2	Z2	X3	Y3	Z3	X4	Y4	Z4	X5	Y5	Z5	X6	Y6	Z6	X7	Y7	Z7	X8	Y8	Z8	X9	Y9	Z9	X10	Y10	Z10	X11	Y11	Z11	X12	Y12	Z12	X13	Y13	Z13	X14	Y14	Z14	X15	Y15	Z15	X16	Y16	Z16	X17	Y17	Z17	X18	Y18	Z18	X19	Y19	Z19	X20	Y20	Z20	X21	Y21	Z21	X22	Y22	Z22	X23	Y23	Z23	X24	Y24	Z24

322	1.284	0.23490357	0.075822833	-0.041065993	0.87204648	0.035614298	0.11366032	0.26005124	0.20350301	-0.078221208	0.73548843	0.059922741	0.14348776	0.28246305	0.20698718	0.0039334538	0.75041947	0.081018079	0.055675196	0.22506053	0.26684001	-0.030650225	0.67855681	0.038328369	0.087442147	0.59880287	0.38117006	-0.09686325	0.79116404	0.44527625	0.16961287	0.60222308	0.36732319	0.022366878	0.74695263	0.43245364	0.048461341	0.6161456	0.77247744	-0.10489998	0.66264605	0.79999297	0.23626815	0.69940789	0.82327613	-0.070034908	0.73747723	0.84845822	0.16863226	0.53211937	0.91291995	0.072187995	0.65692985	1.3204546	-0.11174857	0.64665457	1.2952594	0.25117725	0.57604443	1.3517086	0.067691792	0.66116985	0.99388418	-0.1746809	0.52777254	1.0002904	0.29125661	0.87041602	0.86445343	-0.14072313	0.60993768	0.78322482	0.35910827
323	1.288	0.24805709	0.077518053	-0.041810392	0.87197455	0.035620523	0.11371293	0.27228036	0.20542233	-0.078419994	0.735502	0.059924513	0.14348918	0.29479455	0.20866718	0.003694466	0.75041553	0.081189076	0.055836997	0.23706493	0.26850393	-0.03071817	0.67852749	0.038394266	0.087428632	0.61089265	0.38231505	-0.097483457	0.79272785	0.44479886	0.17037937	0.61474338	0.36880076	0.021819493	0.74828705	0.43235513	0.049316167	0.62234228	0.77426445	-0.10445048	0.6684842	0.801126	0.23665624	0.70525101	0.8251793	-0.070319442	0.74339005	0.84971332	0.16924566	0.53805523	0.91468277	0.073007946	0.66262098	1.3222678	-0.11167337	0.65342166	1.2970865	0.2512195	0.58230616	1.3534263	0.068002071	0.66531023	0.99572595	-0.17403717	0.53613183	1.0016652	0.29268448	0.87307886	0.86389316	-0.14121469	0.62103133	0.78506935	0.35910298
324	1.292	0.26174889	0.078988019	-0.042484644	0.87190997	0.035624642	0.11376184	0.28476993	0.20718833	-0.078646229	0.73549421	0.059937114	0.14351246	0.3072919	0.21023448	0.00351169	0.75040425	0.08137651	0.056013723	0.2490786	0.26988463	-0.030829544	0.67850912	0.038467822	0.087397022	0.62296678	0.38362965	-0.09805803	0.79419856	0.44437901	0.1711296	0.62732125	0.37040662	0.021254512	0.74961858	0.43234917	0.050050809	0.62842179	0.77611927	-0.10387357	0.67415528	0.80222053	0.23705653	0.71113869	0.82713782	-0.07045192	0.74924675	0.85097351	0.16986004	0.54433252	0.91642775	0.07388118	0.66824297	1.3241282	-0.11161728	0.6601686	1.2989755	0.25123549	0.58852538	1.3551668	0.068292587	0.66939167	0.99764777	-0.17343006	0.54464111	1.0029393	0.29382221	0.87564238	0.86340143	-0.14176156	0.63207839	0.78699027	0.3589804
325	1.296	0.27589329	0.080234883	-0.043102483	0.87185504	0.035624741	0.11381311	0.29747969	0.20877377	-0.078879364	0.73546445	0.059940912	0.1435699	0.31987462	0.21170398	0.0034018162	0.75039373	0.081569302	0.056194378	0.26101707	0.27097179	-0.03085315	0.67848556	0.038559994	0.087383778	0.63501256	0.38513128	-0.0985923	0.79562863	0.444056	0.17183254	0.63973622	0.372134	0.020760757	0.75099198	0.4324368	0.050657985	0.63438899	0.77804389	-0.10312634	0.67972212	0.80330753	0.2375274	0.71721614	0.82921713	-0.070246991	0.75505078	0.85223724	0.17048876	0.55075524	0.91817746	0.074727281	0.67380554	1.3260267	-0.11157862	0.66690005	1.3009205	0.25122616	0.59474054	1.3568891	0.06854564	0.67341035	0.99964929	-0.17285788	0.55311618	1.0041112	0.29466105	0.87810258	0.86297814	-0.14236299	0.64317633	0.78901456	0.35880962
326	1.3	0.29042419	0.081262365	-0.043671083	0.87180526	0.03562301	0.11387296	0.3103416	0.21013632	-0.079059232	0.7354345	0.059922577	0.14365597	0.33256717	0.21304302	0.0033223568	0.75038933	0.081754424	0.056366406	0.27285587	0.27176647	-0.030757467	0.67844596	0.038676811	0.087414006	0.64704323	0.38683266	-0.099132739	0.79703785	0.44386535	0.17243484	0.65204636	0.37397085	0.020301248	0.75241988	0.43261936	0.051145945	0.64030524	0.78004415	-0.10227105	0.68523727	0.80440674	0.23810007	0.72346159	0.83138612	-0.069798378	0.76080237	0.85350596	0.17114707	0.55705159	0.91995696	0.075475721	0.6793161	1.3279558	-0.11155471	0.67362136	1.3029183	0.25119707	0.60095794	1.3585976	0.068768632	0.67736887	1.0017199	-0.17232155	0.56145247	1.0052454	0.29531452	0.88045103	0.86262742	-0.14302389	0.65433017	0.79114272	0.3586109
327	1.304	0.30530338	0.082070876	-0.044190206	0.87175482	0.035622204	0.11394335	0.32330643	0.2112528	-0.079150571	0.73541257	0.059884633	0.14376427	0.34540972	0.21421715	0.0032342487	0.75038695	0.081929116	0.056531629	0.28464418	0.27226991	-0.030610929	0.67839173	0.03881782	0.087489262	0.65907105	0.38872306	-0.099730602	0.79838025	0.44381817	0.17288298	0.66435765	0.3758928	0.019837468	0.7539157	0.43288683	0.051516214	0.64626832	0.7821254	-0.10144853	0.69064988	0.80548636	0.23871594	0.72969987	0.8335474	-0.06934959	0.76650315	0.85477905	0.17184634	0.56302464	0.92178521	0.076122691	0.68478133	1.329905	-0.11154091	0.6803342	1.3049618	0.25115085	0.60715436	1.3603309	0.068986092	0.68127271	1.0038386	-0.1718416	0.56964375	1.0064033	0.29589612	0.88269762	0.862355	-0.14374565	0.66546462	0.79334964	0.35835294
